<svg xmlns="http://www.w3.org/2000/svg" viewBox="0 0 64 64" role="img" aria-label="Snitch logo">
  <defs>
    <linearGradient id="bg" x1="0" y1="0" x2="1" y2="1">
      <stop offset="0%" stop-color="#121212" />
      <stop offset="100%" stop-color="#1f1a17" />
    </linearGradient>
    <linearGradient id="accent" x1="0" y1="0" x2="1" y2="1">
      <stop offset="0%" stop-color="#d6b37d" />
      <stop offset="100%" stop-color="#8f6a3c" />
    </linearGradient>
  </defs>
  <rect width="64" height="64" rx="16" fill="url(#bg)" />
  <rect x="5" y="5" width="54" height="54" rx="13" fill="none" stroke="url(#accent)" stroke-width="2" opacity="0.9" />
  <path d="M22 18c0-2.2 1.8-4 4-4h14c2.2 0 4 1.8 4 4v4H40v-2H24v6h12c4.4 0 8 3.6 8 8s-3.6 8-8 8H24v6h16v-2h4v4c0 2.2-1.8 4-4 4H26c-2.2 0-4-1.8-4-4v-4h4v2h16v-6H30c-4.4 0-8-3.6-8-8s3.6-8 8-8h12v-6H26v2h-4v-4Z" fill="url(#accent)"/>
</svg>